<?xml version="1.0" encoding="utf-8"?>
<!-- Generator: Adobe Illustrator 16.0.0, SVG Export Plug-In . SVG Version: 6.00 Build 0)  -->
<!DOCTYPE svg PUBLIC "-//W3C//DTD SVG 1.1//EN" "http://www.w3.org/Graphics/SVG/1.1/DTD/svg11.dtd">
<svg version="1.1" id="Layer_1" xmlns="http://www.w3.org/2000/svg" xmlns:xlink="http://www.w3.org/1999/xlink" x="0px" y="0px"
	 width="250px" height="90px" viewBox="0 0 250 90" enable-background="new 0 0 250 90" xml:space="preserve">
<g>
	<path fill="#FFFFFF" d="M55.843,16.813C49.095,5.291,41.509,2.339,41.509,2.339S21.285,16.893,4.892,36.916
		c-4.145,8.299-6.213,22.975,1.367,35.927c6.748,11.521,14.678,14.818,14.678,14.818s20.918-15.887,36.257-34.704
		C61.337,44.665,63.426,29.769,55.843,16.813"/>
	<path fill="#CF0A2C" d="M52.769,20.664c-5.955-10.171-12.65-12.78-12.65-12.78L26.505,20.271c0,0,5.471,1.887,10.807,10.358
		c4.224,6.695,4.637,12.43,3.535,15.737c-2.23,3.352-9.951,10.547-12.162,12.577c4.721,6.663,9.221,8.427,9.588,8.566
		c1.947-1.815,9.043-8.566,15.736-16.749C57.668,43.441,59.465,32.101,52.769,20.664"/>
	<path fill="#001689" d="M9,70.125c5.955,10.176,12.65,12.78,12.65,12.78l13.613-12.39c0,0-5.472-1.884-10.808-10.356
		c-4.222-6.697-4.634-12.427-3.533-15.735c2.229-3.351,9.951-10.547,12.162-12.577c-4.725-6.665-9.221-8.432-9.59-8.567
		c-1.946,1.812-9.041,8.563-15.736,16.75C4.099,47.349,2.305,58.691,9,70.125"/>
	<path fill="#FFFFFF" d="M78.188,46.618c2.019-4.946,4.703-7.533,6.653-8.332c2.704-0.276,10.533,1.28,10.533,1.28l1.864-8.427
		c0,0-7.133-1.379-14.183-1.46c-4.68,1.145-10.777,4.905-14.373,13.086c-3.205,7.279-2.605,14.148-2.605,14.148H66.1
		c0.534,6.794,4.583,12.967,11.44,12.967c8.104,0,14.916-3.161,15.97-3.646l-1.054-7.782c0,0-11.859,3.731-14.08,2.578
		c-0.877-0.614-1.457-1.934-1.846-4.335h-0.037C76.346,55.691,76.015,51.94,78.188,46.618"/>
	<path fill="#FFFFFF" d="M167.932,9.177c-19.225-1.506-22.915,4.934-25.438,16.332c-0.49,1.789-1.143,4.965-1.143,4.965h-5.526
		l-2.354,7.251h6.422l-9.554,45.721h9.837l9.556-45.721h10.007l1.542-7.251h-10.005c0,0,0.49-2.357,0.813-3.741
		c1.549-7.083,6.958-9.576,13.988-8.634C166.115,18.102,168.033,9.185,167.932,9.177"/>
	<path fill="#FFFFFF" d="M158.853,68.744h10.014l12.399-58.219c-0.309-0.122-9.738-1.148-9.738-1.148L158.853,68.744z"/>
	<path fill="#FFFFFF" d="M117.042,29.684c-12.16,0-22.127,10.455-22.127,25.129c0,7.776,5.023,15.068,15.48,15.068
		c11.756,0,22.45-9.562,22.45-25.856C132.846,37.138,128.146,29.684,117.042,29.684 M112.827,37.3
		c2.824-0.767,10.066,0.407,10.051,8.024c-0.019,8.821-5.609,15.241-8.428,16.94c-6.525,1.638-9.406-5.022-9.406-8.753
		C105.044,44.356,110.298,38.865,112.827,37.3"/>
	<path fill="#FFFFFF" d="M203.938,59.269c0,0-13.657,3.825-16.13,2.594c-0.604-0.229-2.352-3.245-2.028-8.675
		c18.729-0.811,22.776-6.888,23.344-12.398c0.168-1.138,0.083-2.271-0.24-3.489c-0.892-3.974-4.375-7.616-12.076-7.616
		c-11.188,0-20.833,10.131-20.833,25.695c0,7.294,3.892,14.1,11.591,14.502c9.4,0.488,16.699-3.32,17.752-3.886L203.938,59.269z
		 M200.612,41.027c0,1.864-1.457,5.918-14.185,6c1.705-6.566,5.837-9.969,9.647-9.969C199.559,37.059,200.612,38.922,200.612,41.027
		"/>
	<path fill="#FFFFFF" d="M240.955,68.748c-3.642-5.913-6.318-13.369-7.775-17.425c3.238-3.322,10.129-10.862,15.646-20.587h-10.22
		c-2.188,4.458-5.913,9.323-8.429,12.645c-1.295-3.16-3.483-9-5.592-12.645h-10.859c3.237,4.536,6.322,12.482,7.94,16.939
		c-3.08,3.081-10.782,11.349-16.048,21.072h10.212c2.511-4.782,6.404-9.724,8.837-12.965c1.139,3.158,2.998,8.913,5.51,12.965
		H240.955z"/>
	<path fill="#FFFFFF" d="M248.769,65.017c0,1.053-0.369,1.941-1.103,2.668c-0.735,0.729-1.631,1.094-2.699,1.094
		c-1.067,0-1.963-0.365-2.697-1.094c-0.735-0.727-1.099-1.611-1.099-2.656c0-1.049,0.363-1.941,1.106-2.664
		c0.729-0.723,1.635-1.085,2.699-1.085c1.05,0,1.948,0.362,2.686,1.092C248.399,63.102,248.769,63.986,248.769,65.017
		 M248.004,65.007c0-0.873-0.293-1.607-0.877-2.2c-0.584-0.598-1.293-0.895-2.14-0.895h-0.127c-0.836,0-1.533,0.299-2.091,0.898
		c-0.56,0.597-0.839,1.331-0.839,2.196c0,0.893,0.29,1.644,0.877,2.242c0.581,0.602,1.304,0.9,2.169,0.9
		c0.852,0,1.566-0.299,2.15-0.9C247.711,66.65,248.004,65.899,248.004,65.007 M246.821,67.192l-0.746-0.006l-1.143-1.863
		l-0.75,0.004v1.865h-0.663v-4.327h1.646c1.03,0,1.548,0.402,1.548,1.211c0,0.713-0.377,1.115-1.123,1.205L246.821,67.192z
		 M246.021,64.09c0-0.444-0.311-0.67-0.923-0.67h-0.915v1.337l1.073-0.008c0.237,0,0.423-0.055,0.558-0.177
		C245.953,64.458,246.021,64.296,246.021,64.09"/>
</g>
</svg>
